<?xml version="1.0" encoding="UTF-8" standalone="no"?>
<!DOCTYPE svg PUBLIC "-//W3C//DTD SVG 1.1//EN"
 "http://www.w3.org/Graphics/SVG/1.1/DTD/svg11.dtd">
<!-- Generated by graphviz version 14.1.5 (20260411.2331)
 -->
<!-- Title: CFG Pages: 1 -->
<svg width="788pt" height="1091pt"
 viewBox="0.00 0.00 788.00 1091.00" xmlns="http://www.w3.org/2000/svg" xmlns:xlink="http://www.w3.org/1999/xlink">
<g id="graph0" class="graph" transform="scale(1 1) rotate(0) translate(4 1086.5)">
<title>CFG</title>
<polygon fill="white" stroke="none" points="-4,4 -4,-1086.5 784.25,-1086.5 784.25,4 -4,4"/>
<!-- start -->
<g id="node1" class="node">
<title>start</title>
<polygon fill="#c2ddff" stroke="#519dfc" points="185.33,-1058.94 233.62,-1046.5 281.92,-1058.94 281.87,-1079.06 185.38,-1079.06 185.33,-1058.94"/>
<text xml:space="preserve" text-anchor="middle" x="233.62" y="-1059.45" font-family="Courier New,Product Sans" font-size="14.00">START</text>
</g>
<!-- block_0x0000 -->
<g id="node2" class="node">
<title>block_0x0000</title>
<polygon fill="white" stroke="green" points="449.88,-991 17.38,-991 17.38,-771.5 449.88,-771.5 449.88,-991"/>
<text xml:space="preserve" text-anchor="start" x="27.38" y="-972.7" font-family="JetBrains Mono" font-weight="bold" font-size="14.00">0x0000</text>
<text xml:space="preserve" text-anchor="start" x="27.38" y="-946.5" font-family="JetBrains Mono" font-size="14.00">0x0001 let calldata_1 := calldataload(0x0)</text>
<text xml:space="preserve" text-anchor="start" x="27.38" y="-923" font-family="JetBrains Mono" font-size="14.00">0x0002 let msgSender1 := caller()</text>
<text xml:space="preserve" text-anchor="start" x="27.38" y="-899.5" font-family="JetBrains Mono" font-size="14.00">0x0004 let contractAddr1 := address()</text>
<text xml:space="preserve" text-anchor="start" x="27.38" y="-876" font-family="JetBrains Mono" font-size="14.00">0x000A let xor_1 := xor(msgSender1, contractAddr1)</text>
<text xml:space="preserve" text-anchor="start" x="27.38" y="-852.5" font-family="JetBrains Mono" font-size="14.00">0x000C let xor_2 := xor(calldata_1, xor_1)</text>
<text xml:space="preserve" text-anchor="start" x="27.38" y="-829" font-family="JetBrains Mono" font-size="14.00">0x000D let mod1 := mod(xor_2, 0x03)</text>
<text xml:space="preserve" text-anchor="start" x="27.38" y="-805.5" font-family="JetBrains Mono" font-size="14.00">0x0011 let eq1 := eq(0x0, mod1)</text>
<text xml:space="preserve" text-anchor="start" x="27.38" y="-782" font-family="JetBrains Mono" font-size="14.00">0x0014 if eq1 { // jump_label_0x3c</text>
</g>
<!-- start&#45;&gt;block_0x0000 -->
<g id="edge1" class="edge">
<title>start&#45;&gt;block_0x0000</title>
<path fill="none" stroke="black" d="M233.62,-1046.12C233.62,-1035.07 233.62,-1019.69 233.62,-1002.73"/>
<polygon fill="black" stroke="black" points="237.13,-1002.91 233.63,-992.91 230.13,-1002.91 237.13,-1002.91"/>
<text xml:space="preserve" text-anchor="middle" x="274.88" y="-1015.2" font-family="JetBrains Mono" font-size="14.00">entrypoint</text>
</g>
<!-- block_0x003C -->
<g id="node5" class="node">
<title>block_0x003C</title>
<polygon fill="white" stroke="green" points="325.25,-619.5 0,-619.5 0,-517.5 325.25,-517.5 325.25,-619.5"/>
<text xml:space="preserve" text-anchor="start" x="10" y="-601.2" font-family="JetBrains Mono" font-weight="bold" font-size="14.00">0x003C</text>
<text xml:space="preserve" text-anchor="start" x="10" y="-575" font-family="JetBrains Mono" font-size="14.00">0x003C jump_label_0x3c:</text>
<text xml:space="preserve" text-anchor="start" x="10" y="-551.5" font-family="JetBrains Mono" font-size="14.00">0x0042 sstore(0x0, calldata_1)</text>
<text xml:space="preserve" text-anchor="start" x="10" y="-528" font-family="JetBrains Mono" font-size="14.00">0x0046 jump(0x24) // jump_label_0X24:</text>
</g>
<!-- block_0x0000&#45;&gt;block_0x003C -->
<g id="edge2" class="edge">
<title>block_0x0000&#45;&gt;block_0x003C</title>
<path fill="none" stroke="green" d="M208.69,-771.13C197.94,-724.07 185.77,-670.79 176.64,-630.82"/>
<polygon fill="green" stroke="green" points="180.06,-630.1 174.42,-621.13 173.24,-631.66 180.06,-630.1"/>
<text xml:space="preserve" text-anchor="middle" x="220.68" y="-740.2" font-family="JetBrains Mono" font-size="14.00">true</text>
</g>
<!-- block_0x0015 -->
<g id="node6" class="node">
<title>block_0x0015</title>
<polygon fill="white" stroke="green" points="537.88,-716 237.38,-716 237.38,-637.5 537.88,-637.5 537.88,-716"/>
<text xml:space="preserve" text-anchor="start" x="247.38" y="-697.7" font-family="JetBrains Mono" font-weight="bold" font-size="14.00">0x0015</text>
<text xml:space="preserve" text-anchor="start" x="247.38" y="-671.5" font-family="JetBrains Mono" font-size="14.00">0x0019 let eq2 := eq(0x01, mod1)</text>
<text xml:space="preserve" text-anchor="start" x="247.38" y="-648" font-family="JetBrains Mono" font-size="14.00">0x001C if eq2 { // jump_label_0x32</text>
</g>
<!-- block_0x0000&#45;&gt;block_0x0015 -->
<g id="edge3" class="edge">
<title>block_0x0000&#45;&gt;block_0x0015</title>
<path fill="none" stroke="red" d="M316.49,-771.29C328.75,-755.17 340.81,-739.3 351.42,-725.35"/>
<polygon fill="red" stroke="red" points="353.99,-727.76 357.26,-717.68 348.42,-723.52 353.99,-727.76"/>
<text xml:space="preserve" text-anchor="middle" x="362.74" y="-740.2" font-family="JetBrains Mono" font-size="14.00">false</text>
</g>
<!-- block_0x0024 -->
<g id="node3" class="node">
<title>block_0x0024</title>
<polygon fill="#a8ff82" stroke="green" points="408.5,-125.5 132.75,-125.5 132.75,0 408.5,0 408.5,-125.5"/>
<text xml:space="preserve" text-anchor="start" x="142.75" y="-107.2" font-family="JetBrains Mono" font-weight="bold" font-size="14.00">0x0024</text>
<text xml:space="preserve" text-anchor="start" x="142.75" y="-81" font-family="JetBrains Mono" font-size="14.00">0x0024 jump_label_0x24:</text>
<text xml:space="preserve" text-anchor="start" x="142.75" y="-57.5" font-family="JetBrains Mono" font-size="14.00">0x0026 let slot_4 := sload(0x0)</text>
<text xml:space="preserve" text-anchor="start" x="142.75" y="-34" font-family="JetBrains Mono" font-size="14.00">0x0029 sstore(0x01, calldata_1)</text>
<text xml:space="preserve" text-anchor="start" x="142.75" y="-10.5" font-family="JetBrains Mono" font-size="14.00">0x002A stop()</text>
</g>
<!-- block_0x002B -->
<g id="node4" class="node">
<title>block_0x002B</title>
<polygon fill="white" stroke="green" points="591.25,-283 266,-283 266,-181 591.25,-181 591.25,-283"/>
<text xml:space="preserve" text-anchor="start" x="276" y="-264.7" font-family="JetBrains Mono" font-weight="bold" font-size="14.00">0x002B</text>
<text xml:space="preserve" text-anchor="start" x="276" y="-238.5" font-family="JetBrains Mono" font-size="14.00">0x002B jump_label_0x2b:</text>
<text xml:space="preserve" text-anchor="start" x="276" y="-215" font-family="JetBrains Mono" font-size="14.00">0x002D sstore(0x0, contractAddr1)</text>
<text xml:space="preserve" text-anchor="start" x="276" y="-191.5" font-family="JetBrains Mono" font-size="14.00">0x0031 jump(0x24) // jump_label_0X24:</text>
</g>
<!-- block_0x002B&#45;&gt;block_0x0024 -->
<g id="edge8" class="edge">
<title>block_0x002B&#45;&gt;block_0x0024</title>
<path fill="none" stroke="green" d="M381.22,-180.82C367.29,-166.07 351.78,-149.66 336.9,-133.91"/>
<polygon fill="green" stroke="green" points="339.64,-131.7 330.22,-126.84 334.55,-136.51 339.64,-131.7"/>
<text xml:space="preserve" text-anchor="middle" x="417.4" y="-149.7" font-family="JetBrains Mono" font-size="14.00">backward_jump</text>
</g>
<!-- block_0x003C&#45;&gt;block_0x0024 -->
<g id="edge10" class="edge">
<title>block_0x003C&#45;&gt;block_0x0024</title>
<path fill="none" stroke="green" d="M139.43,-517.15C117.68,-463.01 91.53,-374.76 113.38,-301 131.62,-239.38 171.91,-179.15 207.13,-134.79"/>
<polygon fill="green" stroke="green" points="209.83,-137.01 213.38,-127.03 204.38,-132.62 209.83,-137.01"/>
<text xml:space="preserve" text-anchor="middle" x="167" y="-348.45" font-family="JetBrains Mono" font-size="14.00">backward_jump</text>
</g>
<!-- block_0x001D -->
<g id="node7" class="node">
<title>block_0x001D</title>
<polygon fill="white" stroke="green" points="537.88,-499.5 237.38,-499.5 237.38,-421 537.88,-421 537.88,-499.5"/>
<text xml:space="preserve" text-anchor="start" x="247.38" y="-481.2" font-family="JetBrains Mono" font-weight="bold" font-size="14.00">0x001D</text>
<text xml:space="preserve" text-anchor="start" x="247.38" y="-455" font-family="JetBrains Mono" font-size="14.00">0x0020 let eq3 := eq(0x02, mod1)</text>
<text xml:space="preserve" text-anchor="start" x="247.38" y="-431.5" font-family="JetBrains Mono" font-size="14.00">0x0023 if eq3 { // jump_label_0x2b</text>
</g>
<!-- block_0x0015&#45;&gt;block_0x001D -->
<g id="edge5" class="edge">
<title>block_0x0015&#45;&gt;block_0x001D</title>
<path fill="none" stroke="red" d="M387.62,-637.4C387.62,-602.24 387.62,-549.94 387.62,-511.45"/>
<polygon fill="red" stroke="red" points="391.13,-511.5 387.63,-501.5 384.13,-511.5 391.13,-511.5"/>
<text xml:space="preserve" text-anchor="middle" x="408.25" y="-564.95" font-family="JetBrains Mono" font-size="14.00">false</text>
</g>
<!-- block_0x0032 -->
<g id="node8" class="node">
<title>block_0x0032</title>
<polygon fill="white" stroke="green" points="780.25,-403 455,-403 455,-301 780.25,-301 780.25,-403"/>
<text xml:space="preserve" text-anchor="start" x="465" y="-384.7" font-family="JetBrains Mono" font-weight="bold" font-size="14.00">0x0032</text>
<text xml:space="preserve" text-anchor="start" x="465" y="-358.5" font-family="JetBrains Mono" font-size="14.00">0x0032 jump_label_0x32:</text>
<text xml:space="preserve" text-anchor="start" x="465" y="-335" font-family="JetBrains Mono" font-size="14.00">0x0037 sstore(0x0, msgSender1)</text>
<text xml:space="preserve" text-anchor="start" x="465" y="-311.5" font-family="JetBrains Mono" font-size="14.00">0x003B jump(0x24) // jump_label_0X24:</text>
</g>
<!-- block_0x0015&#45;&gt;block_0x0032 -->
<g id="edge4" class="edge">
<title>block_0x0015&#45;&gt;block_0x0032</title>
<path fill="none" stroke="green" d="M428.39,-637.17C462.79,-603.16 511.87,-551.12 546.62,-499.5 564.61,-472.79 580.65,-440.83 592.92,-413.59"/>
<polygon fill="green" stroke="green" points="595.97,-415.35 596.82,-404.79 589.57,-412.51 595.97,-415.35"/>
<text xml:space="preserve" text-anchor="middle" x="549.92" y="-564.95" font-family="JetBrains Mono" font-size="14.00">true</text>
</g>
<!-- block_0x001D&#45;&gt;block_0x0024 -->
<g id="edge7" class="edge">
<title>block_0x001D&#45;&gt;block_0x0024</title>
<path fill="none" stroke="red" d="M331.34,-420.65C290.58,-389.03 238.71,-340.25 215.38,-283 196.04,-235.55 210.79,-179.48 229.89,-135.93"/>
<polygon fill="red" stroke="red" points="232.96,-137.63 233.92,-127.08 226.59,-134.73 232.96,-137.63"/>
<text xml:space="preserve" text-anchor="middle" x="236" y="-228.45" font-family="JetBrains Mono" font-size="14.00">false</text>
</g>
<!-- block_0x001D&#45;&gt;block_0x002B -->
<g id="edge6" class="edge">
<title>block_0x001D&#45;&gt;block_0x002B</title>
<path fill="none" stroke="green" d="M392.89,-420.74C397.48,-388.6 404.64,-341.67 412.62,-301 413.05,-298.86 413.49,-296.68 413.94,-294.48"/>
<polygon fill="green" stroke="green" points="417.32,-295.4 416,-284.89 410.48,-293.93 417.32,-295.4"/>
<text xml:space="preserve" text-anchor="middle" x="429.12" y="-348.45" font-family="JetBrains Mono" font-size="14.00">true</text>
</g>
<!-- block_0x0032&#45;&gt;block_0x0024 -->
<g id="edge9" class="edge">
<title>block_0x0032&#45;&gt;block_0x0024</title>
<path fill="none" stroke="green" d="M625.87,-300.78C629.04,-263.87 626.87,-214.51 600.62,-181 557.12,-125.46 485.25,-96.18 419.67,-80.77"/>
<polygon fill="green" stroke="green" points="420.78,-77.43 410.26,-78.65 419.25,-84.26 420.78,-77.43"/>
<text xml:space="preserve" text-anchor="middle" x="680.61" y="-228.45" font-family="JetBrains Mono" font-size="14.00">backward_jump</text>
</g>
</g>
</svg>
